<?xml version="1.0" encoding="UTF-8"?>
<svg id="Capa_2" data-name="Capa 2" xmlns="http://www.w3.org/2000/svg" viewBox="0 0 205.7 264.78">
  <defs>
    <style>
      .cls-1 {
        fill: #fff;
      }

      .cls-2 {
        fill: #e94560;
      }
    </style>
  </defs>
  <g id="Capa_2-2" data-name="Capa 2">
    <g>
      <path class="cls-1" d="M1.41,263.37c-.94-.93-1.41-2.23-1.41-3.87V23.84c0-1.87.47-3.22,1.41-4.04.93-.82,2.23-1.23,3.87-1.23h95.32c31.18,0,53.4,6.92,66.65,20.75,13.25,13.84,19.87,33.06,19.87,57.68s-5.34,46.31-16,62.25c-10.67,15.95-25.85,23.92-45.55,23.92-14.07,0-25.15-3.4-33.24-10.2-8.09-6.8-12.72-16.65-13.89-29.54h-5.63v116.07c0,1.64-.47,2.93-1.41,3.87-.94.94-2.35,1.41-4.22,1.41H5.28c-1.64,0-2.93-.47-3.87-1.41ZM108.68,120.22c4.92-4.69,7.39-12.19,7.39-22.51s-2.41-17.7-7.21-22.16c-4.81-4.45-11.2-6.68-19.17-6.68s-14.42,2.23-19.34,6.68c-4.92,4.46-7.39,11.84-7.39,22.16s2.46,17.82,7.39,22.51c4.92,4.69,11.37,7.03,19.34,7.03s14.07-2.34,18.99-7.03Z"/>
      <rect class="cls-1" x="63.78" y="68.28" width="59.56" height="63.79"/>
      <path class="cls-2" d="M19.99,244.8c-.94-.93-1.41-2.23-1.41-3.87V5.28c0-1.87.47-3.22,1.41-4.04.93-.82,2.23-1.23,3.87-1.23h95.32c31.18,0,53.4,6.92,66.65,20.75,13.25,13.84,19.87,33.06,19.87,57.68s-5.34,46.31-16,62.25c-10.67,15.95-25.85,23.92-45.55,23.92-14.07,0-25.15-3.4-33.24-10.2-8.09-6.8-12.72-16.65-13.89-29.54h-5.63v116.07c0,1.64-.47,2.93-1.41,3.87-.94.94-2.35,1.41-4.22,1.41H23.86c-1.64,0-2.93-.47-3.87-1.41ZM127.26,101.65c4.92-4.69,7.39-12.19,7.39-22.51s-2.41-17.7-7.21-22.16c-4.81-4.45-11.2-6.68-19.17-6.68s-14.42,2.23-19.34,6.68c-4.92,4.46-7.39,11.84-7.39,22.16s2.46,17.82,7.39,22.51c4.92,4.69,11.37,7.03,19.34,7.03s14.07-2.34,18.99-7.03Z"/>
    </g>
  </g>
</svg>