<?xml version="1.0" encoding="UTF-8"?>
<svg id="Capa_2" data-name="Capa 2" xmlns="http://www.w3.org/2000/svg" viewBox="0 0 482.53 627.46">
  <defs>
    <style>
      .cls-1 {
        fill: #e94560;
      }
    </style>
  </defs>
  <g id="Capa_2-2" data-name="Capa 2">
    <g>
      <path class="cls-1" d="M411.62,595.09c-145.86,78.59-301.9,2.13-411.62-101.74,24.16-32.29,35.97-62.56,44.6-100.57-10.83-36.49-19.9-71.68-27.76-108.5-9.83-51.49-1.02-103.06,55.99-118.84,5.17-52.25,44.06-75.7,91.34-85.9,54.56-12.71,171.54-.32,176.98-79.54,49.94,24.27,81.27,69.46,77.18,125.98-3.38,33.59-21.05,62.52-51.7,77.93,18,18.81,27.9,41.42,32.51,66.45,26.94,8.42,49.53,23.73,65.45,46.53,14.55,21.66,19.93,47.13,17.27,72.95l-32.17-15.77c-16.55,17.73-36.47,27.71-59.62,34.44-6.21,1.8-15.35,2.63-20.47,6.83-25.62,27.28-31.55,65.72-19.24,100.57,13.86,34.17,33.47,53.7,61.25,79.17ZM35.38,254.52c4.77-27.55,21.42-47.74,47.01-54.53l23.79-3.19c-3.51-28.2,4.58-51.27,29.09-65.55,19.77-11.52,41.64-15.06,64.29-17.82,21.65-2.64,42.47-5.05,63.84-9.26,34-6.7,74.31-26.26,85.57-61.5-19.92,27.55-52.75,39.85-86.12,45.58l-66.54,7.93c-51.24,6.1-107.49,20.72-102.07,86.27l-16.02,3.5c-33.62,7.34-45.7,39-42.85,68.57ZM377.82,272.67c-4.08-24.1-14.65-44.76-33.5-60.48-19.74,3.76-39.09,4.52-59.34,1.65l-62.89-8.92c-14.56-2.07-29.37-2.66-43.06.64-14.91,3.59-23.5,16.51-19.03,30.94l4.05,13.09c-44.64,19.32-66.23,47.57-82.6,92.71l-18.9,67.38c-8,28.5-17.95,55.42-34.49,80.89,43.48,37.85,93.25,73.62,147.95,93.31,2.37-46.14,14.98-88.1,37.4-127.03,46.92-76.5,82.45-80.38,97.71-90.45,4.16-2.74,7.44-6.62,9.4-11.2,7.58-17.69,10.56-58.2,57.3-82.53ZM458.56,355.21c-6.62-33.09-37.22-56.71-68.3-64.97-28.6,18.21-34.44,26.72-46.66,60.49,40.9-8.72,72.81-11.57,114.96,4.49ZM424.76,367.9c-25.88-5.79-51.94-2.85-76.79,4.73,7.91,5.6,12.9,10.97,17.02,19.56,21.45-4.33,40.97-8.61,59.77-24.28ZM373.56,588.66c-18.14-19.27-32.09-37.91-40.79-60.61-17.43-39.32-11.06-81.22,11.93-116.81,5.38-8.33-4.45-20.66-11.96-23.31-8.97-3.18-17.59-2.54-25.17,2.42-17.31,11.31-33.19,23.41-47.26,38.88-40.71,44.77-62.3,102.36-63.04,162.79,54.66,17.71,123.76,20.9,176.29-3.35Z"/>
      <path class="cls-1" d="M293.01,310.13c-3.26,8.46-51.81,39.56-70.82-1.31-18.13-38.97-34.42-47.85-34.42-47.85,0,0,30.59.89,60.26,8.89,21.2,5.72,54.8,14.77,44.98,40.27Z"/>
    </g>
  </g>
</svg>