<?xml version="1.0" encoding="UTF-8"?>
<svg id="Capa_2" data-name="Capa 2" xmlns="http://www.w3.org/2000/svg" viewBox="0 0 1210.19 286.29">
  <defs>
    <style>
      .cls-1 {
        fill: #e9ecef;
      }

      .cls-2 {
        fill: #e94560;
      }
    </style>
  </defs>
  <g id="Capa_2-2" data-name="Capa 2">
    <g>
      <path class="cls-1" d="M2.35,260.69V83.86c0-7.06-1.18-20.3-2.35-25.89h42.96c.29,5,1.47,11.18,3.24,16.18,5.59-7.06,11.18-13.24,17.07-16.48h33.25c14.71,5.3,22.66,15.01,27.95,25.6v112.4c-5.59,10.89-16.18,20.01-27.07,25.3h-38.25c-3.53-1.76-8.24-6.18-11.48-10v49.73c0,7.65.88,20.01,2.35,25.6H0c1.47-5.88,2.35-20.6,2.35-25.6ZM55.02,183.31h17.65c2.06-.59,5.88-3.83,6.47-5.88v-76.21c-1.18-2.65-3.83-5-6.18-6.18h-13.53c-3.24,1.18-8.53,5.3-11.77,7.94v75.62c1.47,1.76,5,4.12,7.36,4.71Z"/>
      <path class="cls-1" d="M154.18,195.37v-112.1c5.59-10.89,16.48-20.01,27.07-25.3h68.26c10.59,5.3,21.77,14.71,27.07,25.3v112.1c-5.59,10.89-16.77,20.01-27.07,25.3h-68.26c-10.59-5.3-21.77-15.01-27.07-25.3ZM231.27,177.13v-75.62c-1.18-2.65-3.82-5-6.47-6.18h-18.83c-2.65,1.18-5.3,3.53-6.47,6.18v75.62c1.18,2.65,3.83,4.71,6.47,5.88h18.83c2.65-1.18,5.3-3.24,6.47-5.88Z"/>
      <path class="cls-1" d="M303.65,195.08v-110.34c0-7.06-1.18-21.19-2.35-26.78h42.96c.29,5,2.06,10.89,3.83,15.89,5-6.18,11.18-12.95,17.36-16.18h32.37c15.01,5.3,22.66,14.71,28.25,25.6v111.81c0,7.65.88,20.3,2.35,25.6h-50.02c1.47-5.88,2.35-20.89,2.35-25.6v-93.86c-1.18-2.65-3.82-5-6.47-6.18h-12.65c-2.06.59-2.65.88-4.12,2.06l-8.53,6.77v91.21c0,7.65.88,20.01,2.35,25.6h-50.02c1.47-5.88,2.35-20.6,2.35-25.6Z"/>
      <path class="cls-1" d="M460.47,193.9v-102.98h-14.71v-35.31c2.94.59,7.94,1.47,14.71,1.77v-7.65c0-7.06-1.18-12.36-2.35-17.95l47.67-16.77v42.96h21.77c7.06,0,17.65.29,22.36-.88v34.72c-5-1.18-15.59-.88-22.36-.88h-21.77v85.03c1.18,3.83,4.41,6.47,7.94,7.65h5c9.12,0,15.3-9.12,17.95-15.89l23.54,27.95c-6.18,6.47-20.3,18.54-30.6,25.3h-38.54c-13.54-5.3-25.01-14.42-30.6-27.07Z"/>
      <path class="cls-1" d="M573.46,190.08v-106.22c5.59-11.48,15.89-20.89,27.07-26.19h64.44c8.53,5.59,13.83,12.36,20.89,20.6,3.24,11.77,4.71,25.01,5.88,38.25-2.65,8.53-7.65,14.71-15.01,21.18l-57.96,29.13c0,4.41.88,8.53,1.76,11.47,2.35,2.35,5.3,3.83,7.94,5h13.83c12.36-2.94,21.19-13.53,23.83-19.71l30.6,27.95c-12.06,11.18-26.19,22.95-36.78,29.42h-53.55c-14.42-5.3-27.66-16.18-32.95-30.89ZM647.6,112.69l-.29-9.12c-2.35-4.71-5.88-8.53-9.71-10.3h-12.65c-2.94.88-5,2.35-6.18,4.71v37.07l23.83-14.12c2.65-2.35,4.71-5,5-8.24Z"/>
      <path class="cls-2" d="M717.92,260.69V83.86c0-7.06-1.18-20.3-2.35-25.89h42.96c.29,5,1.47,11.18,3.24,16.18,5.59-7.06,11.18-13.24,17.07-16.48h33.25c14.71,5.3,22.66,15.01,27.95,25.6v112.4c-5.59,10.89-16.18,20.01-27.07,25.3h-38.25c-3.53-1.76-8.24-6.18-11.48-10v49.73c0,7.65.88,20.01,2.35,25.6h-50.02c1.47-5.88,2.35-20.6,2.35-25.6ZM770.59,183.31h17.65c2.06-.59,5.88-3.83,6.47-5.88v-76.21c-1.18-2.65-3.83-5-6.18-6.18h-13.54c-3.24,1.18-8.53,5.3-11.77,7.94v75.62c1.47,1.76,5,4.12,7.36,4.71Z"/>
      <path class="cls-2" d="M939.78,205.96c-6.47,5.59-13.24,10.89-20.89,15.01h-27.95c-10-5.59-17.36-13.53-23.83-23.24-2.06-10.59-3.83-22.07-5-33.54,1.18-7.06,9.71-17.36,16.18-22.36l58.85-29.42v-11.18c-1.18-2.65-3.53-5-6.18-6.18h-16.77c-3.83.88-7.06,2.06-11.18,7.06-5.88,6.47-8.83,9.71-10.59,12.65l-30.31-27.95c12.06-10.3,25.3-22.66,37.96-29.13h55.32c10.89,5.3,21.77,15.59,27.07,26.19v107.4c0,6.18,6.18,24.42,9.42,29.42h-50.02l-2.06-14.71ZM917.12,185.37h8.24c3.53-1.47,7.94-4.12,11.77-6.47v-33.84l-25.01,13.53c-2.35,2.06-4.41,5-4.71,8.24l.29,9.12c2.35,4.71,5.59,7.65,9.42,9.42Z"/>
      <path class="cls-2" d="M1011.28,260.69V83.86c0-7.06-1.18-20.3-2.35-25.89h42.96c.29,5,1.47,11.18,3.24,16.18,5.59-7.06,11.18-13.24,17.07-16.48h33.25c14.71,5.3,22.66,15.01,27.95,25.6v112.4c-5.59,10.89-16.18,20.01-27.07,25.3h-38.25c-3.53-1.76-8.24-6.18-11.48-10v49.73c0,7.65.88,20.01,2.35,25.6h-50.02c1.47-5.88,2.35-20.6,2.35-25.6ZM1063.95,183.31h17.65c2.06-.59,5.88-3.83,6.47-5.88v-76.21c-1.18-2.65-3.83-5-6.18-6.18h-13.54c-3.24,1.18-8.53,5.3-11.77,7.94v75.62c1.47,1.76,5,4.12,7.36,4.71Z"/>
      <path class="cls-2" d="M1162.52,195.08v-110.34c0-7.94-1.18-21.19-2.35-26.78h49.14c-.88,5.59-1.47,20.89-1.47,26.78v110.34c0,7.65.88,20.3,2.35,25.6h-50.02c1.47-5.88,2.35-20.89,2.35-25.6ZM1162.23,0h45.9c-1.76,5.59-1.47,28.83,0,34.13h-45.9c1.77-5.59,1.47-28.83,0-34.13Z"/>
    </g>
  </g>
</svg>