<?xml version="1.0" encoding="UTF-8"?>
<svg id="Capa_2" data-name="Capa 2" xmlns="http://www.w3.org/2000/svg" viewBox="0 0 1552.14 297.21">
  <defs>
    <style>
      .cls-1 {
        fill: #fff;
      }

      .cls-2 {
        fill: #e94560;
      }
    </style>
  </defs>
  <g id="Capa_2-2" data-name="Capa 2">
    <g>
      <path class="cls-1" d="M1.41,248.32c-.94-.93-1.41-2.23-1.41-3.87V8.79c0-1.87.47-3.22,1.41-4.04.93-.82,2.23-1.23,3.87-1.23h95.32c31.18,0,53.4,6.92,66.65,20.75,13.24,13.84,19.87,33.06,19.87,57.68s-5.34,46.31-16,62.25c-10.67,15.95-25.85,23.92-45.55,23.92-14.07,0-25.15-3.4-33.24-10.2-8.09-6.8-12.72-16.65-13.89-29.54h-5.63v116.07c0,1.64-.47,2.93-1.41,3.87-.94.94-2.35,1.41-4.22,1.41H5.28c-1.64,0-2.93-.47-3.87-1.41ZM108.68,105.17c4.92-4.69,7.39-12.19,7.39-22.51s-2.41-17.7-7.21-22.16c-4.81-4.45-11.2-6.68-19.17-6.68s-14.42,2.23-19.34,6.68c-4.92,4.46-7.39,11.84-7.39,22.16s2.46,17.82,7.39,22.51c4.92,4.69,11.37,7.03,19.34,7.03s14.07-2.34,18.99-7.03Z"/>
      <path class="cls-1" d="M215.43,228.09c-16.3-17.47-24.44-43.32-24.44-77.56s8.14-60.08,24.44-77.55c16.29-17.47,38.51-26.2,66.65-26.2s50.65,8.68,66.83,26.03c16.18,17.36,24.27,43.15,24.27,77.38s-8.09,60.14-24.27,77.73c-16.18,17.59-38.46,26.38-66.83,26.38s-50.36-8.73-66.65-26.2ZM297.21,185.36c3.28-7.03,4.92-18.64,4.92-34.82s-1.64-27.49-4.92-34.64c-3.29-7.15-8.33-10.73-15.12-10.73s-11.84,3.52-15.12,10.55c-3.29,7.03-4.92,18.41-4.92,34.12,0,11.02.76,19.87,2.29,26.56,1.52,6.68,3.75,11.61,6.68,14.77,2.93,3.17,6.62,4.75,11.08,4.75,6.8,0,11.84-3.52,15.12-10.55Z"/>
      <path class="cls-1" d="M389,248.32c-.94-.93-1.41-2.23-1.41-3.87V56.28c0-1.87.47-3.22,1.41-4.04.93-.82,2.34-1.23,4.22-1.23h59.44c1.87,0,3.22.41,4.04,1.23.82.82,1.23,2.17,1.23,4.04v47.48h4.92c1.64-18.76,6.51-32.89,14.6-42.38,8.09-9.5,20.46-14.24,37.11-14.24s27.96,4.92,36.05,14.77c8.09,9.85,12.13,23.8,12.13,41.85v140.69c0,1.64-.41,2.93-1.23,3.87-.82.94-2.17,1.41-4.04,1.41h-59.44c-1.88,0-3.29-.47-4.22-1.41-.94-.93-1.41-2.23-1.41-3.87v-112.2c0-6.33-1.29-11.08-3.87-14.25-2.58-3.17-6.45-4.75-11.61-4.75-7.03,0-11.96,2.29-14.77,6.86-2.81,4.57-4.22,10.61-4.22,18.11v106.22c0,1.64-.41,2.93-1.23,3.87-.82.94-2.17,1.41-4.04,1.41h-59.44c-1.88,0-3.29-.47-4.22-1.41Z"/>
      <path class="cls-1" d="M604.43,241.28c-8.56-8.67-12.84-21.81-12.84-39.39v-100.24h-12.66c-1.64,0-2.94-.47-3.87-1.41-.94-.93-1.41-2.34-1.41-4.22v-37.28c0-1.87.47-3.22,1.41-4.04.93-.82,2.23-1.35,3.87-1.58,15.94-1.64,29.66-5.22,41.15-10.73,11.49-5.51,20.4-13.89,26.73-25.15.7-1.64,1.7-2.87,2.99-3.69,1.29-.82,2.87-1.23,4.75-1.23h2.11c1.87,0,3.22.47,4.04,1.41.82.94,1.23,2.35,1.23,4.22v33.06h22.86c1.87,0,3.28.41,4.22,1.23.93.82,1.41,2.17,1.41,4.04v39.74c0,1.88-.47,3.29-1.41,4.22-.94.94-2.35,1.41-4.22,1.41h-22.86v79.84c0,5.16,1.7,8.74,5.1,10.73,3.4,1.99,9.2,1.23,17.41-2.29,1.64-.93,2.87-1.11,3.69-.53.82.59,1.23,1.82,1.23,3.69v42.56c0,1.88-.41,3.46-1.23,4.75-.83,1.29-2.06,2.41-3.69,3.34-14.07,7.03-28.49,10.55-43.26,10.55-15.95,0-28.2-4.34-36.75-13.01Z"/>
      <path class="cls-1" d="M720.32,227.74c-15.95-17.47-23.92-43.91-23.92-79.31,0-22.04,3.69-40.62,11.08-55.75,7.39-15.12,17.7-26.56,30.95-34.29,13.24-7.74,28.67-11.61,46.25-11.61,24.38,0,44.08,7.16,59.09,21.46,15,14.31,22.86,38.11,23.57,71.4,0,1.88-.35,3.23-1.05,4.04-.7.82-2,1.23-3.87,1.23h-102.35l5.28-5.98c0,15.48.88,27.61,2.64,36.4s4.34,14.89,7.74,18.29c3.4,3.4,7.68,5.1,12.84,5.1,6.56,0,11.55-2.69,14.95-8.09,3.4-5.39,5.21-15,5.45-28.84,0-1.87.47-3.22,1.41-4.04.93-.82,2.34-1.23,4.22-1.23h47.83c1.87,0,3.17.41,3.87,1.23.7.82,1.05,2.17,1.05,4.04-.7,31.19-8.79,54.34-24.27,69.47s-35.29,22.69-59.44,22.69c-26.26,0-47.37-8.73-63.31-26.2ZM800.16,120.82c3.52-2.93,5.28-7.21,5.28-12.84,0-11.25-6.92-16.88-20.75-16.88s-20.75,5.75-20.75,17.23c0,5.4,1.64,9.56,4.92,12.49,3.28,2.93,8.44,4.4,15.48,4.4s12.31-1.46,15.83-4.4Z"/>
      <path class="cls-2" d="M887.74,248.32c-.94-.93-1.41-2.23-1.41-3.87V8.79c0-1.87.47-3.22,1.41-4.04.93-.82,2.23-1.23,3.87-1.23h95.32c31.18,0,53.4,6.92,66.65,20.75,13.25,13.84,19.87,33.06,19.87,57.68s-5.34,46.31-16,62.25c-10.67,15.95-25.85,23.92-45.55,23.92-14.07,0-25.15-3.4-33.24-10.2-8.09-6.8-12.72-16.65-13.89-29.54h-5.63v116.07c0,1.64-.47,2.93-1.41,3.87-.94.94-2.35,1.41-4.22,1.41h-61.9c-1.64,0-2.93-.47-3.87-1.41ZM995.01,105.17c4.92-4.69,7.39-12.19,7.39-22.51s-2.41-17.7-7.21-22.16c-4.81-4.45-11.2-6.68-19.17-6.68s-14.42,2.23-19.34,6.68c-4.92,4.46-7.39,11.84-7.39,22.16s2.46,17.82,7.39,22.51c4.92,4.69,11.37,7.03,19.34,7.03s14.07-2.34,18.99-7.03Z"/>
      <path class="cls-2" d="M1106.16,242.86c-8.68-7.39-15.36-18.52-20.05-33.41-4.69-14.89-7.04-33.71-7.04-56.45,0-37.05,6.09-63.89,18.29-80.54,12.19-16.65,28.84-24.97,49.94-24.97,15.94,0,27.9,4.57,35.88,13.72,7.97,9.14,12.89,23.1,14.77,41.85h4.92v-46.78c0-1.87.41-3.22,1.23-4.04.82-.82,2.17-1.23,4.04-1.23h46.43c1.87,0,3.28.41,4.22,1.23.93.82,1.41,2.17,1.41,4.04v188.17c0,1.64-.47,2.93-1.41,3.87s-2.35,1.41-4.22,1.41h-59.09c-1.64,0-2.93-.47-3.87-1.41-.94-.93-1.41-2.23-1.41-3.87v-47.83h-4.92c-1.18,16.18-5.45,29.78-12.84,40.8-7.39,11.02-19.17,16.53-35.35,16.53-11.96,0-22.28-3.69-30.95-11.08ZM1184.07,179.38c3.87-6.56,5.8-16.88,5.8-30.95,0-11.96-.7-21.16-2.11-27.61-1.41-6.45-3.52-11.02-6.33-13.72-2.81-2.69-6.45-4.04-10.9-4.04-6.57,0-11.61,3.46-15.12,10.38-3.52,6.92-5.28,17.65-5.28,32.18s1.81,26.32,5.45,33.24c3.63,6.92,8.38,10.38,14.24,10.38s10.38-3.28,14.25-9.85Z"/>
      <path class="cls-2" d="M1431.15,57.15c9.38,6.92,16.71,18.23,21.98,33.94,5.28,15.71,7.91,36.23,7.91,61.55,0,23.92-2.81,43.38-8.44,58.39-5.63,15.01-12.96,25.8-21.98,32.36-9.03,6.56-18.82,9.85-29.37,9.85-12.9,0-23.33-3.75-31.3-11.25-7.97-7.5-12.55-17.82-13.72-30.95h-4.92v80.9c0,1.87-.41,3.22-1.23,4.04-.82.82-2.17,1.23-4.04,1.23h-59.44c-1.88,0-3.29-.41-4.22-1.23-.94-.82-1.41-2.17-1.41-4.04V56.28c0-1.64.47-2.93,1.41-3.87.93-.93,2.34-1.41,4.22-1.41h50.3c1.64,0,2.93.47,3.87,1.41.93.94,1.41,2.23,1.41,3.87v47.13h4.92c.47-9.38,2.58-18.4,6.33-27.08,3.75-8.67,9.38-15.77,16.88-21.28,7.5-5.51,16.76-8.27,27.79-8.27,12.66,0,23.68,3.46,33.06,10.38ZM1355.18,121.52c-3.75,6.68-5.63,17.53-5.63,32.53,0,16.18,1.58,27.49,4.75,33.94,3.17,6.45,8.03,9.67,14.6,9.67s11.55-3.46,14.95-10.38c3.4-6.91,5.1-17.64,5.1-32.18s-1.76-26.32-5.28-33.24c-3.52-6.91-8.33-10.38-14.42-10.38-5.63,0-10.32,3.34-14.07,10.02Z"/>
      <path class="cls-2" d="M1481.27,53.11c-6.92-5.39-10.38-12.66-10.38-21.81s3.52-16.94,10.55-22.69c7.03-5.74,17.11-8.62,30.25-8.62s23.44,2.87,30.25,8.62c6.8,5.75,10.2,13.31,10.2,22.69s-3.4,16.42-10.2,21.81c-6.8,5.4-16.88,8.09-30.25,8.09s-23.51-2.69-30.42-8.09ZM1477.58,248.32c-.94-.93-1.41-2.23-1.41-3.87V69.99c0-1.87.47-3.1,1.41-3.69.93-.58,2.23-.76,3.87-.53,19.93,4.92,39.98,4.92,60.14,0,1.87-.23,3.17-.06,3.87.53.7.59,1.05,1.82,1.05,3.69v174.45c0,1.64-.41,2.93-1.23,3.87-.82.94-2.17,1.41-4.04,1.41h-59.44c-1.88,0-3.29-.47-4.22-1.41Z"/>
    </g>
  </g>
</svg>